<svg width="52" height="53" viewBox="0 0 52 53" fill="none" xmlns="http://www.w3.org/2000/svg">
<g id="Group 21">
<g id="Group 15">
<path id="Vector" d="M31.0497 13.0849C33.2679 13.669 35.2913 14.8314 36.9133 16.4534C38.5352 18.0754 39.6976 20.0988 40.2818 22.317" stroke="#F79122" stroke-width="2" stroke-linecap="round" stroke-linejoin="round"/>
<path id="Vector_2" d="M29.7308 18.3603C32.4543 19.089 34.2776 20.9123 35.0063 23.6358" stroke="#F79122" stroke-width="2" stroke-linecap="round" stroke-linejoin="round"/>
<path id="Vector_3" d="M31.7734 30.4511C31.956 30.3295 32.1661 30.2555 32.3846 30.2356C32.6031 30.2158 32.8231 30.2507 33.0247 30.3373L40.7994 33.8208C41.0614 33.9328 41.2801 34.1266 41.4228 34.3733C41.5654 34.6199 41.6243 34.9062 41.5907 35.1891C41.3346 37.1032 40.392 38.8591 38.9383 40.1303C37.4845 41.4015 35.6185 42.1015 33.6874 42.1C27.741 42.1 22.0382 39.7378 17.8335 35.5331C13.6288 31.3284 11.2666 25.6256 11.2666 19.6792C11.2651 17.7481 11.9651 15.8821 13.2363 14.4283C14.5075 12.9746 16.2634 12.032 18.1775 11.7759C18.4604 11.7423 18.7467 11.8012 18.9933 11.9438C19.24 12.0865 19.4338 12.3052 19.5458 12.5672L23.0293 20.3485C23.1149 20.5484 23.1497 20.7663 23.1307 20.9829C23.1118 21.1995 23.0395 21.408 22.9205 21.5899L19.3974 25.779C19.2725 25.9675 19.1986 26.1853 19.183 26.411C19.1674 26.6367 19.2106 26.8626 19.3084 27.0665C20.6718 29.8576 23.5568 32.708 26.3561 34.0582C26.5612 34.1556 26.7881 34.1978 27.0145 34.1808C27.2408 34.1637 27.4588 34.0879 27.647 33.9609L31.7734 30.4511Z" stroke="#F79122" stroke-width="2" stroke-linecap="round" stroke-linejoin="round"/>
</g>
<circle id="Ellipse 2" cx="26" cy="26.5" r="25" stroke="#F79122" stroke-width="2"/>
</g>
</svg>
