<svg width="52" height="52" viewBox="0 0 52 52" fill="none" xmlns="http://www.w3.org/2000/svg">
<g id="Group 19">
<circle id="Ellipse 4" cx="26" cy="26" r="25" stroke="#F79122" stroke-width="2"/>
<g id="Group 18">
<path id="Vector" d="M15.923 31.2692C18.557 31.2692 20.6923 29.134 20.6923 26.5C20.6923 23.866 18.557 21.7308 15.923 21.7308C13.2891 21.7308 11.1538 23.866 11.1538 26.5C11.1538 29.134 13.2891 31.2692 15.923 31.2692Z" stroke="#F79122" stroke-width="2" stroke-linecap="round" stroke-linejoin="round"/>
<path id="Vector_2" d="M32.6154 42C35.2494 42 37.3847 39.8648 37.3847 37.2308C37.3847 34.5968 35.2494 32.4615 32.6154 32.4615C29.9814 32.4615 27.8462 34.5968 27.8462 37.2308C27.8462 39.8648 29.9814 42 32.6154 42Z" stroke="#F79122" stroke-width="2" stroke-linecap="round" stroke-linejoin="round"/>
<path id="Vector_3" d="M32.6154 20.5385C35.2494 20.5385 37.3847 18.4032 37.3847 15.7692C37.3847 13.1353 35.2494 11 32.6154 11C29.9814 11 27.8462 13.1353 27.8462 15.7692C27.8462 18.4032 29.9814 20.5385 32.6154 20.5385Z" stroke="#F79122" stroke-width="2" stroke-linecap="round" stroke-linejoin="round"/>
<path id="Vector_4" d="M28.6048 18.3476L19.9337 23.9216" stroke="#F79122" stroke-width="2" stroke-linecap="round" stroke-linejoin="round"/>
<path id="Vector_5" d="M19.9337 29.0783L28.6048 34.6524" stroke="#F79122" stroke-width="2" stroke-linecap="round" stroke-linejoin="round"/>
</g>
</g>
</svg>
