<svg width="364" height="258" viewBox="0 0 364 258" fill="none" xmlns="http://www.w3.org/2000/svg">
<path d="M257.375 151.636C256.463 158.752 258.335 165.855 257.496 173.019C256.255 168.941 255.996 164.707 255.659 160.511C255.192 154.73 254.824 148.932 255.775 143.15C255.841 142.561 255.968 141.979 256.156 141.417C256.445 140.702 256.718 139.761 257.613 139.74C258.633 139.709 258.685 140.788 258.841 141.473C259.597 144.819 260.367 148.173 260.929 151.558C262.52 161.162 263.955 170.791 264.327 180.538C264.357 181.322 264.392 182.111 264.379 182.896C264.31 186.909 263.514 190.935 259.623 192.673C255.732 194.41 251.538 193.656 247.842 191.372C246.821 190.74 246.303 189.951 245.248 191.563C243.951 193.587 241.517 192.803 240.172 191.932C236.052 189.249 232.995 189.83 229.061 192.859C224.711 196.205 218.914 194.71 215.658 190.501C214.205 193.444 212.571 196.135 208.671 195.191C208.109 195.052 207.305 195.065 207.041 194.697C204.975 191.819 203.682 193.366 202.013 195.238C199.419 198.151 192.981 197.761 190.772 194.657C189.968 193.526 189.652 193.275 188.416 194.315C182.324 199.451 175.303 197.249 173.241 189.518C171.178 181.786 170.806 173.803 169.916 165.898C169.518 162.384 169.202 158.856 168.917 155.328C168.554 150.812 169.812 146.873 173.673 144.238C179.488 140.255 185.424 136.437 191.706 132.307C191.637 135.193 191.252 137.148 188.68 138.574C183.876 141.222 179.371 144.407 174.598 147.116C171.753 148.732 170.707 150.817 170.902 154.05C171.52 163.868 172.633 173.649 174.235 183.355C174.667 186.094 175.502 189.024 178.645 189.756C182.899 190.753 187.028 190.328 190.457 187.104C191.321 186.289 191.754 184.828 193.306 184.937C193.777 185.431 193.556 185.882 193.358 186.332C191.775 189.856 192.29 190.701 196.228 190.939C200.409 191.195 204.071 190.419 205.96 186.029C206.285 185.27 206.708 184.391 207.984 184.191C208.148 185.691 206.596 187.862 209.614 188.326C212.632 188.79 214.586 187.979 215.667 185.106C215.965 184.317 216.177 183.372 217.214 183.121C218.01 186.878 219.311 187.866 224.677 187.81C229.346 187.762 233.445 186.51 236.104 181.977C239.104 176.837 241.979 176.577 245.472 181.47C248.499 185.726 252.347 186.956 257.107 186.839C260.241 186.766 262.615 184.846 262.33 182.163C261.27 171.9 259.616 161.707 257.375 151.636ZM244.75 186.74C244.173 184.954 243.073 183.384 241.594 182.232C240.012 180.906 238.719 181.86 237.906 183.138C236.96 184.629 238.59 184.906 239.437 185.327C241.063 186.234 242.889 186.723 244.75 186.748V186.74Z" fill="white"/>
<path d="M205.256 64.8683C204.871 72.2878 206.475 79.4559 205.796 86.663C203.933 76.7776 202.8 66.8489 203.92 56.7988C204.071 55.438 204.093 53.2147 205.757 53.1627C207.53 53.1064 207.318 55.3903 207.582 56.6688C210.206 69.2888 212.052 82.0172 212.631 94.9146C212.77 97.9483 212.368 100.826 210.686 103.383C209.389 105.329 207.755 106.733 205.178 106.685C202.424 106.629 200.854 105.03 199.804 102.785C198.273 99.5258 198.018 95.9807 197.724 92.167C196.475 93.1941 196.349 94.6372 195.727 95.751C190.504 105.03 174.974 112.219 164.498 110.135C157.706 108.787 154.152 104.362 154.429 97.4195C154.479 94.5464 155.203 91.7254 156.543 89.1853C156.543 91.0835 156.543 92.1453 156.543 93.2114C156.582 98.6113 159.639 102.581 164.974 103.262C176.25 104.705 185.679 100.367 194.045 93.2028C195.364 92.076 195.364 90.4205 195.32 88.8256C195.078 79.8676 193.785 71.0093 192.765 62.1207C192.333 58.4846 191.291 54.7532 194.084 51.1605C195.882 56.5821 196.423 62.0297 197.227 67.4123C198.632 76.8383 199.894 86.286 201.304 95.7077C201.771 98.8497 203.846 100.41 206.492 99.9288C209.562 99.3698 210.854 97.4802 210.47 94.2212C209.359 84.8472 207.975 75.5208 206.125 66.2682C206.051 65.8174 206.168 65.267 205.256 64.8683Z" fill="white"/>
<path d="M75.5693 128.874C83.3515 128.705 90.1826 126.33 95.4572 120.367C96.1057 119.63 96.7153 118.859 97.3206 118.087C100.027 114.655 100.446 111.24 98.0643 107.253C95.2151 102.507 95.401 102.052 97.2817 96.6178C99.3353 98.217 100.092 100.618 101.359 102.646C103.088 105.446 105.293 105.957 109.776 104.852C112.833 104.102 112.371 101.892 112.271 99.7468C111.765 90.5938 109.807 81.6359 108.527 72.5869C108.095 69.5012 107.926 66.4112 106.525 63.4512C105.488 61.2583 107.204 59.0611 107.853 56.5822C108.99 58.359 109.69 60.0275 111.125 61.124C111.414 61.3224 111.62 61.6195 111.705 61.9594C111.79 62.2994 111.748 62.6588 111.588 62.9702C109.781 67.0613 111.13 71.0917 111.752 75.1352C113.049 83.6511 114.454 92.1583 114.221 100.921C115.57 100.666 115.95 99.6645 116.56 98.9928C119.426 95.8898 122.133 92.6177 125.522 90.0435C127.576 88.4833 129.738 87.1225 132.479 87.3218C135.626 87.5515 138.636 88.3403 140.261 91.2916C141.818 94.1389 140.49 96.7912 138.912 99.2701C135.484 104.661 130.153 107.279 124.377 109.151C117.969 111.223 111.307 111.751 104.627 111.929C103.071 111.968 102.526 112.363 102.146 113.94C100.892 119.141 98.6868 123.947 95.0768 128.003C93.0231 130.304 90.5717 131.323 87.4632 130.885C83.4813 130.348 79.4864 130.014 75.5693 128.874ZM114.965 104.518C116.854 104.211 117.827 104.085 118.787 103.894C124.165 102.789 129.526 101.576 134.463 99.0578C136.763 97.8833 136.768 96.4271 134.463 95.3264C131.83 94.0739 128.99 93.4802 126.249 94.9797C122.077 97.2679 118.808 100.648 114.965 104.518Z" fill="white"/>
<path d="M79.9842 85.8527C82.708 90.4638 83.5208 95.0663 82.6994 99.8118C82.0076 103.803 79.1325 106.196 75.276 106.807C72.7857 107.201 72.0507 108.133 72.2842 110.495C72.496 112.601 71.7092 114.577 70.7191 116.397C65.652 125.676 57.8957 131.111 47.3422 131.999C40.3036 132.601 35.4181 128.645 34.1686 121.711C33.3284 117.486 33.7155 113.109 35.2841 109.099C36.1877 110.638 35.7424 112.133 35.7164 113.528C35.6473 121.594 40.9478 126.252 48.8295 124.922C56.6117 123.622 63.179 119.908 68.6352 114.2C69.9322 112.857 70.758 111.569 69.8803 109.507C69.0027 107.444 67.5024 107.907 65.9676 107.985C64.8911 108.042 63.8059 108.05 62.7294 108.029C57.3467 107.907 55.2714 105.311 56.4171 100.029C56.878 97.7053 57.9009 95.5311 59.396 93.6968C61.4842 91.2092 63.5681 91.0966 65.8812 93.4151C67.4663 95.0379 68.6611 97.0019 69.3745 99.1574C70.0187 101.008 71.2552 101.515 72.9803 101.394C73.8585 101.339 74.7332 101.236 75.6003 101.086C81.3029 100.063 81.7525 99.2138 79.3314 94.1129C78.2851 91.842 78.3759 90.2601 79.9842 85.8527ZM64.917 101.021C64.6815 100.435 64.3304 99.9024 63.8846 99.4556C63.4389 99.0087 62.9077 98.6568 62.323 98.4207C61.6269 98.0783 61.0259 98.0263 60.4898 98.6634C60.1007 99.1228 59.7375 99.6298 59.9451 100.254C60.2304 101.121 61.0389 100.96 61.6744 100.995C62.6429 101.064 63.594 101.025 64.9257 101.025L64.917 101.021Z" fill="#FFFDFD"/>
<path d="M164.006 185.002C162.108 189.288 159.042 191.68 155.285 193.435C148.257 196.724 140.73 198.812 133.015 199.615C128.804 200.049 126.042 197.592 123.897 194.272C122.086 191.468 121.273 188.205 119.764 185.045C118.722 185.912 118.77 186.978 118.532 187.953C117.109 193.851 110.464 197.596 104.697 195.754C102.967 195.204 102.254 193.856 102.103 192.192C101.879 190.203 102.177 188.191 102.967 186.354C104.027 188.889 106.093 189.258 108.354 188.998C109.717 188.835 111.059 188.536 112.362 188.105C117.55 186.419 118.61 184.434 117.619 179.03C116.794 174.527 115.125 170.085 116.539 165.24C117.732 167.485 117.957 169.942 118.601 172.26C119.92 176.989 121.195 181.73 123.508 186.094C127.235 193.175 131.675 194.818 139.483 192.01C135.851 185.83 137.62 180.269 141.796 175.259C145.973 170.25 152.518 171.138 155.899 177.353C152.441 176.594 149.133 175.871 145.787 176.763C143.859 177.279 141.55 177.257 140.932 179.823C140.584 181.22 140.686 182.691 141.224 184.026C141.761 185.361 142.706 186.491 143.923 187.255C147.451 189.396 151.273 189.019 155.078 188.322C158.07 187.793 160.781 186.389 164.006 185.002Z" fill="white"/>
<path d="M253.717 103.938C253.951 103.071 254.124 102.204 254.426 101.398C257.02 94.2862 261.876 91.8203 269.022 94.1736C274.249 95.9071 279.442 97.6406 285.019 97.7229C285.819 97.7229 286.623 97.9136 286.191 98.7761C285.598 99.9462 286.718 102.156 284.461 102.282C278.088 102.629 272.654 105.584 267.094 108.254C264.625 109.437 262.126 110.56 259.411 111.114C253.834 112.259 250.267 110.681 247.306 105.745C245.645 103.006 244.858 99.8682 243.081 96.2754C242.606 98.0696 242.329 99.1444 242.035 100.215C240.531 105.762 233.998 109.316 228.486 107.626C226.428 107.006 225.87 105.459 225.636 103.608C225.416 101.909 226 100.302 226.341 98.321C228.213 101.147 230.773 101.212 233.522 100.627C236.142 100.072 238.65 99.2701 240.578 97.2852C241.538 96.2971 241.59 95.0013 241.564 93.6968C241.508 90.7195 240.596 87.8939 240.008 85.0292C239.493 82.5113 239.575 80.041 240.008 76.951C241.378 79.2956 241.512 81.4408 242.061 83.4301C243.479 88.5309 244.824 93.6665 247.461 98.308C248.814 100.692 250.349 102.993 253.138 103.981C257.418 105.632 266.108 104.211 271.132 100.887C268.97 100.241 267.016 99.6385 265.053 99.0838C260.821 97.8833 256.255 98.542 254.707 103.504C254.556 103.916 254.137 104.011 253.717 103.938Z" fill="white"/>
<path d="M316.044 89.7617C318.638 94.4682 319.663 98.7804 319.019 103.387C318.431 107.556 315.781 110.092 311.816 110.984C309.909 111.418 309.196 112.237 308.746 114.079C307.181 120.51 303.126 125.204 297.791 128.892C294.847 130.933 291.548 130.326 288.379 129.685C285.549 129.088 282.801 128.153 280.194 126.898C281.712 126.898 283.221 126.898 284.751 126.898C294.488 126.946 301.358 121.828 307.008 114.508C307.441 113.94 307.838 113.329 307.363 112.649C306.961 112.076 306.295 112.289 305.729 112.384C296.139 113.936 296.26 108.484 298.189 101.983C298.555 100.865 299.143 99.8334 299.918 98.9494C301.76 96.7825 303.831 96.9082 305.586 99.1661C306.498 100.336 307.039 101.706 307.605 103.067C308.063 104.172 307.851 106.026 310.03 105.623C312.512 105.164 315.249 105.233 316.909 102.928C317.592 101.974 316.775 100.761 316.213 99.9245C314.09 96.7868 314.825 93.6101 316.044 89.7617ZM304.743 106.382C303.632 104.462 302.728 103.262 300.852 103.634C300.13 103.777 299.512 104.362 299.862 105.112C300.843 107.201 302.728 106.026 304.752 106.382H304.743Z" fill="white"/>
<path d="M81.3245 188.647C81.7871 183.164 84.0656 178.306 86.5472 173.522C87.1309 172.399 87.9351 172.681 88.7652 173.153C91.9905 174.991 95.1725 177.097 95.2763 181.201C95.3887 185.838 94.1998 190.198 89.8936 192.902C87.9005 194.15 85.6826 194.541 83.4689 193.453C81.4802 192.456 81.3159 190.588 81.3245 188.647ZM87.8832 187.524C89.6558 187.377 91.5106 187.42 91.9559 185.357C92.2629 183.936 88.1426 179.754 86.6337 180.087C84.3898 180.59 84.5196 182.848 84.3163 184.551C83.9878 187.255 86.1884 187.225 87.8832 187.524Z" fill="#FFFDFD"/>
<path d="M274.574 194.493C273.908 188.274 273.212 182.059 272.572 175.836C271.902 169.296 271.43 162.726 270.566 156.212C270.133 152.914 271.089 150.084 272.295 147.176C273.977 162.938 275.849 178.674 275.689 194.532L274.574 194.493Z" fill="white"/>
<path d="M187.538 179.247C187.681 176.122 189.03 174.674 191.602 173.79C200.794 170.627 209.908 167.246 219.389 163.823C218.978 166.323 217.88 167.658 215.874 168.399C206.466 171.87 197.011 175.207 187.538 179.247Z" fill="#FCFCFC"/>
<path d="M172.346 86.6024C174.257 85.0249 176.349 85.0769 177.988 84.1191C178.623 83.7464 179.618 83.6164 179.479 82.5676C179.376 81.7832 178.615 81.6055 177.992 81.3325C172.454 78.9792 172.22 78.4072 175.061 72.9769C176.505 70.2206 178.165 67.5943 181.295 65.7481C181.079 68.2834 180.599 70.212 178.636 71.5728C177.798 72.1492 176.678 72.8469 177.045 74.1254C177.348 75.1915 178.489 75.3042 179.432 75.5729C184.356 77.003 185.096 79.4733 181.827 83.5514C179.501 86.468 176.397 87.1788 172.346 86.6024Z" fill="#FCFCFC"/>
<path d="M87.6322 117.099C87.2779 116.93 86.9343 116.739 86.6032 116.527C84.0913 114.586 81.895 114.005 80.6455 117.827C80.5677 118.07 80.1786 118.452 80.131 118.421C78.5357 117.502 76.2399 116.913 75.7254 115.31C75.2931 113.875 76.4777 111.842 77.7834 110.729C78.5054 110.113 79.7506 111.223 80.559 111.825C82.1587 113.017 83.1531 113.017 83.94 110.958C84.2729 110.092 84.2859 107.838 86.253 109.268C87.7835 110.373 90.9007 110.469 89.7593 113.663C89.3054 114.928 88.9854 116.445 87.6322 117.099Z" fill="#FCFCFC"/>
<path d="M95.1158 163.038C95.064 166.466 92.8677 167.892 90.1179 166.037C88.2156 164.737 87.312 165.049 86.4084 167.034C86.0928 167.727 85.7512 169.751 84.3807 168.382C83.1485 167.155 79.5471 167.558 81.1554 164.048C82.7637 160.537 82.7551 160.347 85.708 162.314C87.5628 163.554 88.2675 163.116 89.0457 161.292C89.3657 160.542 89.1452 158.873 90.9221 159.411C92.699 159.948 95.1461 161.985 95.1158 163.038Z" fill="#FCFCFC"/>
<path d="M64.1127 84.7649C64.1127 88.5829 61.9034 90.0564 59.171 88.2622C57.3379 87.0618 56.3219 87.1224 55.4139 89.233C55.1113 89.9351 54.7741 91.959 53.343 90.5591C52.1238 89.363 48.7645 89.6924 50.0745 86.4377C51.5661 82.7106 51.6828 82.5373 54.8605 84.6175C56.6375 85.7876 57.2601 85.3326 57.9907 83.6294C58.3279 82.832 58.2588 80.9554 59.8282 81.6532C61.5014 82.3986 63.4945 83.04 64.1127 84.7649Z" fill="white"/>
<path d="M226.648 176.139C230.972 173.028 235.961 170.869 239.848 167.099C236.796 164.065 236.822 161.465 239.917 159.528C240.7 159.038 241.508 158.683 242.39 159.142C243.272 159.601 243.078 160.468 243.134 161.231C243.255 162.847 242.087 164.598 244.055 166.046C244.569 166.427 243.497 168.767 242.758 168.265C240.795 166.913 240.414 168.642 239.597 169.409C235.922 172.898 231.681 175.264 226.648 176.139Z" fill="white"/>
<path d="M191.529 49.5484C191.668 47.0738 192.965 46.0813 194.928 45.3879C201.906 42.9827 208.823 40.4387 215.996 37.8601C215.736 39.7713 214.958 40.7464 213.557 41.2708C206.268 44.0011 198.987 46.7401 191.529 49.5484Z" fill="white"/>
<path d="M161.395 65.1067C161.503 62.8185 162.549 61.7524 164.451 61.0936C171.511 58.645 178.52 56.0621 185.779 53.4445C185.563 55.633 184.447 56.4781 182.895 57.0545C175.779 59.6938 168.68 62.3721 161.395 65.1067Z" fill="white"/>
<path d="M112.314 127.531C112.05 129.312 111.415 130.348 110.114 130.842C102.733 133.633 95.349 136.402 87.8867 139.21C87.9386 137.152 88.7514 135.93 90.697 135.254C97.8004 132.796 104.861 130.209 112.314 127.531Z" fill="white"/>
<path d="M131.662 171.22C131.662 169.235 132.393 168.035 134.213 167.394C141.368 164.863 148.48 162.262 155.947 159.593C155.83 161.461 155.039 162.431 153.582 162.977L131.662 171.22Z" fill="white"/>
<path d="M140.676 73.6747C140.266 75.4688 139.699 76.5566 138.273 77.0984C131.32 79.729 124.377 82.3899 117.421 85.0119C117.03 85.0754 116.631 85.0754 116.24 85.0119C116.305 83.4474 116.781 82.2946 118.346 81.7355C125.678 79.1222 132.989 76.4526 140.676 73.6747Z" fill="white"/>
<path d="M286.381 119.453C285.889 121.29 285.365 122.322 284.146 122.785C276.775 125.568 269.399 128.341 261.824 131.189C261.993 129.602 262.148 128.229 263.657 127.674C271.081 124.97 278.482 122.309 286.381 119.453Z" fill="white"/>
<path d="M128.242 152.455C127.913 154.279 127.304 155.285 125.942 155.796C118.812 158.47 111.674 161.183 104.558 163.866C104.42 163.918 104.203 163.771 103.896 163.68C103.896 162.089 104.532 160.971 106.11 160.403C113.356 157.812 120.598 155.185 128.242 152.455Z" fill="white"/>
<path d="M64.2071 71.8241C63.9131 73.64 63.3078 74.6411 61.9503 75.1525C54.8209 77.8394 47.6829 80.5567 40.5665 83.248C40.4238 83.3 40.2076 83.1613 39.8574 83.066C39.905 81.3628 40.64 80.288 42.3348 79.69C49.503 77.1417 56.6367 74.5414 64.2071 71.8241Z" fill="white"/>
<path d="M299.537 73.6747C303.147 70.9444 307.28 69.0765 310.493 65.8738C307.635 63.0829 307.67 60.5866 310.536 58.7924C312.399 57.631 313.532 58.19 313.61 60.3352C313.67 61.8781 312.693 63.5033 314.41 64.9247C314.872 65.3018 314.302 67.4774 313.065 66.862C311.526 66.0992 311.241 67.07 310.562 67.7287C307.453 70.7754 303.973 73.133 299.537 73.6747Z" fill="white"/>
<path d="M225.783 77.8048C229.091 75.3388 232.761 73.5143 235.978 70.966C237.076 70.0993 238.023 69.4535 236.147 68.3267C234.694 67.46 234.828 66.0385 235.576 64.6993C236.363 63.2865 237.396 61.956 239.13 61.9994C240.863 62.0427 240.548 63.5769 240.513 64.6993C240.47 65.9995 239.7 67.3386 241.244 68.4134C241.905 68.8728 241.313 69.6485 241.028 70.2683C240.669 71.0354 240.206 70.9487 239.657 70.537C238.468 69.6702 238.157 70.8837 237.616 71.4037C234.296 74.7278 230.44 77.0073 225.783 77.8048Z" fill="white"/>
<path d="M77.251 204.591C77.251 203.225 77.3893 202.064 78.548 201.635C85.2753 199.126 92.0329 196.69 99.0023 194.146C98.838 196.4 97.5539 196.989 96.1531 197.513C89.9273 199.845 83.7189 202.181 77.251 204.591Z" fill="white"/>
<path d="M318.279 75.4082C317.497 76.938 317.099 79.9544 315.854 79.9067C314.064 79.8374 312.231 78.0128 310.666 76.6563C310.121 76.1796 312.672 71.9412 313.368 71.9325C314.466 71.9412 318.206 74.4851 318.279 75.4082Z" fill="#FCFCFC"/>
<path d="M272.412 121.819C271.162 121.013 269.999 120.085 268.689 119.466C267.297 118.803 267.003 118.044 267.825 116.744C268.508 115.643 268.473 113.528 269.831 113.55C271.612 113.58 273.203 114.941 274.647 116.129C275.434 116.774 274.734 117.403 274.483 117.953C273.86 119.271 273.514 120.74 272.412 121.819Z" fill="white"/>
</svg>
